<?xml version="1.0" encoding="utf-8"?>
<!-- Generator: Adobe Illustrator 16.0.0, SVG Export Plug-In . SVG Version: 6.00 Build 0)  -->
<!DOCTYPE svg PUBLIC "-//W3C//DTD SVG 1.1//EN" "http://www.w3.org/Graphics/SVG/1.1/DTD/svg11.dtd">
<svg version="1.1" id="图层_1" xmlns="http://www.w3.org/2000/svg" xmlns:xlink="http://www.w3.org/1999/xlink" x="0px" y="0px"
	 width="500px" height="500px" viewBox="0 0 500 500" enable-background="new 0 0 500 500" xml:space="preserve">
<path fill="#FFFFFF" d="M500,400c0,55.229-44.771,100-100,100H100C44.771,500,0,455.229,0,400V100C0,44.771,44.771,0,100,0h300
	c55.229,0,100,44.771,100,100V400z"/>
<g>
	<path fill="#DF001F" d="M45.998,288.522c24.349,159.041,193.309,177.324,193.309,177.324s-62.118-43.33-48.955-112.346
		c11.031-57.843,48.329-56.485,58.998-124.27c9.852-62.604-37.461-128.148-112.126-116.728
		C66.082,123.383,34.071,210.63,45.998,288.522"/>
	<path fill="#DF001F" d="M208.147,73.935c0,25.319,20.525,45.844,45.843,45.844c25.32,0,45.846-20.525,45.846-45.844
		c0-25.318-20.525-45.843-45.846-45.843C228.672,28.092,208.147,48.617,208.147,73.935"/>
	<path fill="#FFFFFF" d="M219.54,206.307c0,36.369-29.483,65.852-65.853,65.852c-36.368,0-65.851-29.483-65.851-65.852
		c0-36.37,29.483-65.853,65.851-65.853C190.057,140.454,219.54,169.937,219.54,206.307"/>
	<path d="M355.686,374.212c0,36.853-29.873,66.726-66.725,66.726s-66.725-29.873-66.725-66.726
		c0-36.851,29.874-66.724,66.725-66.724S355.686,337.361,355.686,374.212"/>
	<path fill="#DF001F" d="M116.698,187.467v-5.649c0-4.236,3.322-10.072,10.078-10.072h22.906l-0.053-8.155h9.608v8.155h21.364
		c6.329,0,10.078,5.397,10.078,10.072v5.649h-8.319v-5.647c0,0-0.079-3.292-3.409-3.292h-50.582c-2.527,0-3.351,2.398-3.351,3.29
		v5.649H116.698z"/>
	<path fill="#DF001F" d="M178.348,231.097v-43.629h-49.627v43.629h-12.022v6.473h73.98v-6.473H178.348z M170.023,231.097h-32.979
		v-8.369h32.979V231.097z M170.023,216.872h-32.979v-8.131h32.979V216.872z M170.023,202.885h-32.979v-8.636h32.979V202.885z"/>
	<path fill="#FFFFFF" d="M261.896,364.621v6.32c-0.254,3.97,1.855,5.828,6.322,5.579h57.879l-0.02,8.181h-74.256l0.031-13.016
		v-15.248h64.207l0.012-4.007c0,0,0.082-6.775-7.307-6.775h-56.434c0,0,2.59-8.556,11.488-8.556h49.355
		c7.721,0,12.922,5.007,12.922,13.028v14.493H261.896z M277.703,411.283c-8.438,0.245-12.525-4.089-12.277-13.017v-10.666h9.672
		v8.438c-0.25,4.463,2.104,6.692,7.066,6.692h15.611c12.861,0,14.748-15.13,14.748-15.13v11.826c0,0,0.582,11.856-11.535,11.856
		H277.703z M287.506,397.02c-1.762-2.322-3.408-4.681-5.207-6.873l1.885-1.167c0,0,5.553-4.038,10.512,1.712
		c2.186,2.533,4.059,5.135,5.824,7.638l-1.609,1.05C298.91,399.379,292.004,402.954,287.506,397.02"/>
	<path fill="#FFFFFF" d="M266.17,411.293c0,0-14.35,1.284-14.35-12.362v-11.328h9.686v11.742
		C261.506,409.782,266.17,411.293,266.17,411.293"/>
	<path fill="#FFFFFF" d="M311.75,411.293c0,0,14.35,1.284,14.35-12.362v-11.328h-9.682v11.742
		C316.418,409.782,311.75,411.293,311.75,411.293"/>
</g>
</svg>
