<?xml version="1.0" encoding="utf-8"?>
<!-- Generator: Adobe Illustrator 16.0.0, SVG Export Plug-In . SVG Version: 6.00 Build 0)  -->
<!DOCTYPE svg PUBLIC "-//W3C//DTD SVG 1.1//EN" "http://www.w3.org/Graphics/SVG/1.1/DTD/svg11.dtd">
<svg version="1.1" id="图层_1" xmlns="http://www.w3.org/2000/svg" xmlns:xlink="http://www.w3.org/1999/xlink" x="0px" y="0px"
	 width="30px" height="30px" viewBox="0 0 30 30" enable-background="new 0 0 30 30" xml:space="preserve">
<circle fill="#44B549" cx="15" cy="15" r="15"/>
<g>
	<path fill="#FFFFFF" d="M6.063,21.057c-0.118,0-0.234-0.042-0.327-0.122c-0.153-0.132-0.211-0.344-0.147-0.535l0.68-2.047
		c-2.026-1.52-3.094-3.436-3.094-5.561c0-4.007,3.794-7.267,8.457-7.267c4.068,0,7.686,2.503,8.484,5.846
		c0.039,0.072,0.062,0.154,0.062,0.242c0,0.276-0.224,0.5-0.5,0.5c-0.005,0-0.014,0-0.02,0c-0.019,0-0.036-0.001-0.055-0.003
		c-0.234-0.026-0.471-0.044-0.711-0.044c-3.454,0-6.265,2.6-6.265,5.796c0,0.504,0.076,1.018,0.226,1.527
		c0.042,0.145,0.018,0.3-0.067,0.424c-0.085,0.124-0.222,0.203-0.373,0.215c-0.259,0.021-0.52,0.033-0.783,0.033
		c-0.885,0-1.631-0.153-2.422-0.316l-0.294-0.06l-2.627,1.319C6.216,21.039,6.139,21.057,6.063,21.057z M11.631,6.525
		c-4.112,0-7.457,2.811-7.457,6.267c0,1.916,0.999,3.584,2.97,4.96c0.182,0.127,0.258,0.357,0.188,0.567l-0.415,1.248l1.702-0.854
		c0.099-0.049,0.212-0.065,0.321-0.043l0.468,0.095c0.809,0.167,1.516,0.321,2.335,0.295c-0.078-0.4-0.117-0.801-0.117-1.198
		c0-3.748,3.259-6.796,7.265-6.796c0.03,0,0.061,0,0.092,0.001C18.046,8.436,15.019,6.525,11.631,6.525z M14.613,11.897
		c-0.814,0-1.693-0.572-1.693-1.496c0-0.922,0.879-1.493,1.693-1.493c0.881,0,1.496,0.614,1.496,1.493
		C16.109,11.282,15.494,11.897,14.613,11.897z M14.613,9.908c-0.335,0-0.693,0.198-0.693,0.493c0,0.292,0.365,0.496,0.693,0.496
		c0.32,0,0.496-0.176,0.496-0.496C15.109,10.079,14.938,9.908,14.613,9.908z M9.045,11.897c-0.816,0-1.697-0.572-1.697-1.496
		c0-0.922,0.881-1.493,1.697-1.493c0.88,0,1.494,0.614,1.494,1.493C10.539,11.268,9.911,11.897,9.045,11.897z M9.045,9.908
		c-0.33,0-0.697,0.202-0.697,0.493c0,0.292,0.368,0.496,0.697,0.496c0.319,0,0.494-0.176,0.494-0.496
		C9.539,10.079,9.368,9.908,9.045,9.908z"/>
</g>
<g>
	<path fill="#FFFFFF" d="M23.513,24.475c-0.082,0-0.165-0.021-0.24-0.062l-2.011-1.102c-0.752,0.188-1.526,0.366-2.318,0.366
		c-4.007,0-7.268-2.814-7.268-6.273s3.26-6.273,7.268-6.273c3.934,0,7.257,2.873,7.257,6.273c0,1.68-0.959,3.362-2.708,4.767
		l0.499,1.659c0.059,0.194-0.006,0.405-0.164,0.533C23.736,24.437,23.625,24.475,23.513,24.475z M21.33,22.279
		c0.083,0,0.166,0.021,0.24,0.062l1.111,0.608l-0.246-0.818c-0.061-0.201,0.011-0.418,0.179-0.544
		c1.667-1.253,2.586-2.738,2.586-4.183c0-2.858-2.865-5.273-6.257-5.273c-3.456,0-6.268,2.365-6.268,5.273
		c0,2.908,2.812,5.273,6.268,5.273c0.735,0,1.513-0.195,2.266-0.384C21.249,22.284,21.289,22.279,21.33,22.279z M21.125,16.91
		c-0.675,0-1.289-0.618-1.289-1.296c0-0.679,0.614-1.296,1.289-1.296c0.825,0,1.496,0.582,1.496,1.296
		C22.621,16.328,21.95,16.91,21.125,16.91z M21.125,15.317c-0.116,0-0.289,0.177-0.289,0.296c0,0.122,0.17,0.296,0.289,0.296
		c0.33,0,0.496-0.19,0.496-0.296C21.621,15.51,21.451,15.317,21.125,15.317z M16.749,16.91c-0.679,0-1.296-0.618-1.296-1.296
		c0-0.667,0.63-1.296,1.296-1.296c0.824,0,1.495,0.582,1.495,1.296C18.244,16.251,17.685,16.91,16.749,16.91z M16.749,15.317
		c-0.119,0-0.296,0.177-0.296,0.296c0,0.122,0.174,0.296,0.296,0.296c0.318,0,0.495-0.175,0.495-0.296
		C17.244,15.507,17.079,15.317,16.749,15.317z"/>
</g>
</svg>
