<?xml version="1.0" encoding="utf-8"?>
<!-- Generator: Adobe Illustrator 17.0.0, SVG Export Plug-In . SVG Version: 6.00 Build 0)  -->
<!DOCTYPE svg PUBLIC "-//W3C//DTD SVG 1.1//EN" "http://www.w3.org/Graphics/SVG/1.1/DTD/svg11.dtd">
<svg version="1.1" id="图层_1" xmlns="http://www.w3.org/2000/svg" xmlns:xlink="http://www.w3.org/1999/xlink" x="0px" y="0px"
	 width="200px" height="200px" viewBox="217.5 0 200 200" enable-background="new 217.5 0 200 200" xml:space="preserve">
<path fill="#F4C722" d="M396.111,98.157L396.111,98.157c1.289-8.863-3.158-17.733-12.252-24.624
	c-7.89-21.849-18.684-47.817-26.796-52.405c-1.967-1.11-5.667-2.587-15.067-2.587c-18.073,0-54.045,5.962-64.244,13.309
	c-1.859,1.339-2.96,3.489-2.96,5.781v68.629c0,2.163,0.984,4.212,2.677,5.566c0.512,0.406,12.648,10.069,25.323,17.135
	c16.931,9.445,28.529,21.852,30.842,28.731c0.418,1.244,0.798,2.465,1.167,3.649c2.491,7.983,5.901,18.918,18.96,18.918
	c6.757,0,12.319-3.839,15.258-10.529c4.717-10.74,2.223-29.497-10.458-47.647c6.915-1.649,15.415-3.771,20.428-5.366
	C388.458,113.71,394.858,106.77,396.111,98.157L396.111,98.157z M250.247,118.654L250.247,118.654
	c6.393,0,11.576-5.18,11.576-11.575V37.028c0-6.394-5.183-11.577-11.576-11.577c-6.394,0-11.577,5.183-11.577,11.577v70.051
	C238.67,113.473,243.853,118.654,250.247,118.654L250.247,118.654z"/>
</svg>
