<?xml version="1.0" encoding="utf-8"?>
<!-- Generator: Adobe Illustrator 17.0.0, SVG Export Plug-In . SVG Version: 6.00 Build 0)  -->
<!DOCTYPE svg PUBLIC "-//W3C//DTD SVG 1.1//EN" "http://www.w3.org/Graphics/SVG/1.1/DTD/svg11.dtd">
<svg version="1.1" id="图层_1" xmlns="http://www.w3.org/2000/svg" xmlns:xlink="http://www.w3.org/1999/xlink" x="0px" y="0px"
	 width="200px" height="200px" viewBox="0 0 200 200" enable-background="new 0 0 200 200" xml:space="preserve">
<g>
	<path fill="#DF001F" d="M100.224,199.833c-49.748,0-90.222-40.473-90.222-90.222S50.476,19.39,100.224,19.39
		s90.222,40.473,90.222,90.222S149.973,199.833,100.224,199.833z M100.224,26.804c-45.661,0-82.808,37.15-82.808,82.808
		s37.146,82.808,82.808,82.808s82.808-37.15,82.808-82.808S145.885,26.804,100.224,26.804z"/>
</g>
<circle fill="#FFFFFF" cx="100.224" cy="23.1" r="19.395"/>
<path fill="#DF001F" d="M100.224,46.201c-12.739,0-23.104-10.361-23.104-23.104C77.12,10.361,87.485,0,100.224,0
	c12.736,0,23.1,10.361,23.1,23.097C123.324,35.84,112.96,46.201,100.224,46.201z M100.224,7.414c-8.652,0-15.69,7.038-15.69,15.683
	c0,8.652,7.038,15.69,15.69,15.69c8.649,0,15.686-7.038,15.686-15.69C115.91,14.452,108.873,7.414,100.224,7.414z"/>
<g>
	<circle fill="#FFFFFF" cx="177.031" cy="149.286" r="19.395"/>
	<path fill="#DF001F" d="M177.03,172.385c-12.736,0-23.1-10.361-23.1-23.097c0-12.743,10.365-23.104,23.1-23.104
		c12.739,0,23.104,10.361,23.104,23.104C200.133,162.024,189.769,172.385,177.03,172.385z M177.03,133.599
		c-8.649,0-15.686,7.038-15.686,15.69c0,8.645,7.038,15.683,15.686,15.683c8.652,0,15.69-7.038,15.69-15.683
		C192.719,140.636,185.682,133.599,177.03,133.599z"/>
</g>
<g>
	<circle fill="#FFFFFF" cx="23.102" cy="149.286" r="19.395"/>
	<path fill="#DF001F" d="M23.104,172.385C10.365,172.385,0,162.024,0,149.288c0-12.743,10.365-23.104,23.104-23.104
		c12.736,0,23.1,10.361,23.1,23.104C46.204,162.024,35.84,172.385,23.104,172.385z M23.104,133.599
		c-8.652,0-15.69,7.038-15.69,15.69c0,8.645,7.038,15.683,15.69,15.683c8.649,0,15.686-7.038,15.686-15.683
		C38.79,140.636,31.752,133.599,23.104,133.599z"/>
</g>
<g>
	<path fill="#DF001F" d="M161.615,152.995H38.519v-3.707c0-5.445-2.813-10.426-7.523-13.329l-3.15-1.94l61.05-99.533l3.157,1.94
		c5.112,3.121,11.204,3.142,16.316,0.007l3.164-1.933l60.786,99.518l-3.157,1.933c-4.728,2.889-7.548,7.877-7.548,13.337V152.995z
		 M45.636,145.581h108.862c0.869-5.365,3.613-10.223,7.783-13.778l-53.358-87.355c-5.575,2.31-11.867,2.31-17.435-0.014
		l-53.604,87.398C42.037,135.387,44.767,140.231,45.636,145.581z"/>
</g>
</svg>
