<?xml version="1.0" encoding="utf-8"?>
<!-- Generator: Adobe Illustrator 17.0.0, SVG Export Plug-In . SVG Version: 6.00 Build 0)  -->
<!DOCTYPE svg PUBLIC "-//W3C//DTD SVG 1.1//EN" "http://www.w3.org/Graphics/SVG/1.1/DTD/svg11.dtd">
<svg version="1.1" id="图层_1" xmlns="http://www.w3.org/2000/svg" xmlns:xlink="http://www.w3.org/1999/xlink" x="0px" y="0px"
	 width="200px" height="200px" viewBox="0 0 200 200" enable-background="new 0 0 200 200" xml:space="preserve">
<path fill="#DF001F" d="M178.914,100.641c-1.253-8.614-7.653-15.553-17.122-18.56c-5.013-1.595-13.513-3.717-20.428-5.366
	c12.681-18.149,15.175-36.907,10.458-47.647c-2.939-6.69-8.501-10.529-15.258-10.529c-13.059,0-16.469,10.935-18.96,18.918
	c-0.369,1.184-0.749,2.405-1.167,3.649c-2.313,6.879-13.911,19.287-30.842,28.731c-12.675,7.066-24.811,16.729-25.323,17.135
	c-1.693,1.354-2.677,3.403-2.677,5.566v68.629c0,2.292,1.101,4.441,2.96,5.781c10.199,7.347,46.171,13.309,64.244,13.309
	c9.4,0,13.1-1.477,15.067-2.587c8.112-4.588,18.905-30.556,26.796-52.405C175.755,118.375,180.202,109.504,178.914,100.641
	L178.914,100.641L178.914,100.641z M33.05,80.144c-6.394,0-11.577,5.18-11.577,11.575v70.051c0,6.394,5.183,11.577,11.577,11.577
	c6.393,0,11.576-5.183,11.576-11.577V91.719C44.626,85.325,39.443,80.144,33.05,80.144L33.05,80.144L33.05,80.144z"/>
</svg>
