<?xml version="1.0" encoding="utf-8"?>
<!-- Generator: Adobe Illustrator 17.0.0, SVG Export Plug-In . SVG Version: 6.00 Build 0)  -->
<!DOCTYPE svg PUBLIC "-//W3C//DTD SVG 1.1//EN" "http://www.w3.org/Graphics/SVG/1.1/DTD/svg11.dtd">
<svg version="1.1" id="图层_1" xmlns="http://www.w3.org/2000/svg" xmlns:xlink="http://www.w3.org/1999/xlink" x="0px" y="0px"
	 width="200px" height="200px" viewBox="0 0 200 200" enable-background="new 0 0 200 200" xml:space="preserve">
<path fill="#DF001F" d="M100,0C44.805,0,0.06,44.744,0.06,99.94c0,55.196,44.745,99.941,99.94,99.941
	c55.195,0,99.94-44.745,99.94-99.941C199.94,44.744,155.195,0,100,0z M163.609,163.549c-0.484,0.484-0.974,0.962-1.467,1.434
	c-8.63-2.595-39.246-12.047-42.672-16.501c-5.282-6.866-2.445-18.521-0.599-20.767c7.388-8.986,10.783-27.756,13.179-29.153
	c2.396-1.398,5.99-10.783-0.599-13.379c0,0,8.387-26.358-2.396-38.339c-10.653-11.836-23.448-11.979-28.954-11.981
	c-0.033,0-0.067,0-0.1,0s-0.067,0-0.1,0c-5.506,0.002-18.301,0.145-28.954,11.981C60.164,58.826,68.55,85.184,68.55,85.184
	c-6.589,2.596-2.995,11.981-0.599,13.379s5.791,20.168,13.179,29.153c1.846,2.246,4.683,13.901-0.599,20.767
	c-3.426,4.454-34.042,13.905-42.672,16.501c-0.494-0.472-0.983-0.95-1.467-1.434c-8.265-8.265-14.752-17.886-19.282-28.597
	c-4.688-11.084-7.065-22.864-7.065-35.012s2.377-23.928,7.065-35.012c4.53-10.711,11.018-20.332,19.282-28.597
	s17.886-14.752,28.597-19.282C76.072,12.361,87.852,9.984,100,9.984s23.928,2.377,35.012,7.065
	c10.711,4.53,20.332,11.018,28.597,19.282c8.265,8.265,14.752,17.886,19.282,28.597c4.688,11.084,7.065,22.864,7.065,35.012
	s-2.377,23.928-7.065,35.012C178.361,145.663,171.873,155.284,163.609,163.549z"/>
</svg>
