<?xml version="1.0" encoding="utf-8"?>
<!-- Generator: Adobe Illustrator 17.0.0, SVG Export Plug-In . SVG Version: 6.00 Build 0)  -->
<!DOCTYPE svg PUBLIC "-//W3C//DTD SVG 1.1//EN" "http://www.w3.org/Graphics/SVG/1.1/DTD/svg11.dtd">
<svg version="1.1" id="图层_1" xmlns="http://www.w3.org/2000/svg" xmlns:xlink="http://www.w3.org/1999/xlink" x="0px" y="0px"
	 width="200px" height="200px" viewBox="0 0 200 200" enable-background="new 0 0 200 200" xml:space="preserve">
<g>
	<path fill="#DF001F" d="M99.998,183.634c-0.961,0.205-1.755-0.378-2.356-1.048L64.194,145.54H28.571
		C12.816,145.54,0,132.724,0,116.969V49.244c0-15.755,12.816-28.571,28.571-28.571h142.854c15.755,0,28.571,12.816,28.571,28.571
		v67.725c0,15.755-12.816,28.571-28.571,28.571h-34.6l-34.501,37.084C101.721,183.268,100.878,183.634,99.998,183.634z
		 M28.571,27.022c-12.252,0-22.222,9.97-22.222,22.222v67.725c0,12.252,9.97,22.222,22.222,22.222h37.034
		c0.899,0,1.755,0.378,2.356,1.048l32.071,35.521l33.085-35.558c0.601-0.645,1.445-1.011,2.325-1.011h35.983
		c12.252,0,22.222-9.97,22.222-22.222V49.244c0-12.252-9.97-22.222-22.222-22.222H28.571z"/>
</g>
<g>
	<path fill="#DF001F" d="M68.637,123.847V53.049c0,0-0.418-2.506,1.659-3.476c2.154-1.007,4.216,0.824,4.216,0.824l50.014,54.762
		V43.963h6.861v71.02c0,0,0.17,2.645-2.099,3.306c-3.196,0.931-4.268-1.402-4.268-1.402L76.115,63.436v60.411H68.637z"/>
</g>
<g>
	<path fill="#DF001F" d="M15.668,58.914c-1.314,0-2.381-1.066-2.381-2.381c0-11.52,9.375-20.895,20.898-20.895
		c1.314,0,2.381,1.066,2.381,2.381c0,1.314-1.066,2.381-2.381,2.381c-8.897,0-16.136,7.236-16.136,16.133
		C18.048,57.847,16.982,58.914,15.668,58.914z"/>
</g>
</svg>
