<?xml version="1.0" encoding="utf-8"?>
<!-- Generator: Adobe Illustrator 17.0.0, SVG Export Plug-In . SVG Version: 6.00 Build 0)  -->
<!DOCTYPE svg PUBLIC "-//W3C//DTD SVG 1.1//EN" "http://www.w3.org/Graphics/SVG/1.1/DTD/svg11.dtd">
<svg version="1.1" id="图层_1" xmlns="http://www.w3.org/2000/svg" xmlns:xlink="http://www.w3.org/1999/xlink" x="0px" y="0px"
	 width="22px" height="22px" viewBox="0 0 22 22" enable-background="new 0 0 22 22" xml:space="preserve">
<path fill="#E7E7E7" d="M22,18c0,2.209-1.791,4-4,4H4c-2.209,0-4-1.791-4-4V4c0-2.209,1.791-4,4-4h14c2.209,0,4,1.791,4,4V18z"/>
<path fill="#AAAAAA" d="M1.549,12.814c1.135,7.413,9.011,8.266,9.011,8.266s-2.895-2.02-2.282-5.237
	c0.514-2.696,2.253-2.633,2.75-5.793c0.459-2.918-1.746-5.973-5.227-5.441C2.485,5.116,0.993,9.183,1.549,12.814z"/>
<circle fill="#AAAAAA" cx="11.244" cy="2.811" r="2.137"/>
<circle fill="#FFFFFF" cx="6.569" cy="8.982" r="3.07"/>
<circle fill="#565656" cx="12.874" cy="16.808" r="3.11"/>
<g>
	<g>
		<path fill="#AAAAAA" d="M4.844,8.103c0,0,0-0.066,0-0.263s0.155-0.469,0.47-0.469c0.338,0,1.068,0,1.068,0L6.379,6.99h0.448
			l0,0.38c0,0,0.662,0,0.996,0c0.295,0,0.47,0.252,0.47,0.469c0,0.196,0,0.263,0,0.263H7.905V7.84c0,0-0.004-0.153-0.159-0.153
			c-0.502,0-2.259,0-2.358,0c-0.118,0-0.156,0.112-0.156,0.153s0,0.263,0,0.263H4.844z"/>
		<path fill="#AAAAAA" d="M7.718,10.137V8.103H5.405v2.034h-0.56v0.302h3.448v-0.302H7.718z M7.33,10.137H5.793v-0.39H7.33V10.137z
			 M7.33,9.474H5.793V9.095H7.33V9.474z M7.33,8.822H5.793V8.42H7.33V8.822z"/>
	</g>
</g>
<g>
	<g>
		<path fill="#E7E7E7" d="M11.613,16.361v0.295c-0.012,0.185,0.086,0.272,0.295,0.26h2.698l-0.001,0.381h-3.461l0.001-0.607V15.98
			h2.993l0-0.187c0,0,0.004-0.316-0.341-0.316c-0.157,0-2.631,0-2.631,0s0.121-0.399,0.535-0.399c0.449,0,1.768,0,2.301,0
			c0.36,0,0.602,0.233,0.602,0.607c0,0.374,0,0.676,0,0.676H11.613z M12.349,18.536c-0.393,0.011-0.584-0.191-0.572-0.607v-0.497
			h0.451v0.393c-0.012,0.208,0.098,0.312,0.329,0.312h0.728c0.6,0,0.687-0.705,0.687-0.705v0.551c0,0,0.027,0.553-0.538,0.553
			H12.349z M12.806,17.871c-0.082-0.108-0.159-0.218-0.243-0.32l0.088-0.054c0,0,0.259-0.188,0.49,0.08
			c0.102,0.118,0.189,0.239,0.271,0.356l-0.075,0.049C13.338,17.981,13.016,18.148,12.806,17.871z"/>
	</g>
	<path fill="#E7E7E7" d="M11.812,18.537c0,0-0.669,0.06-0.669-0.576c0-0.347,0-0.528,0-0.528h0.451c0,0,0,0.061,0,0.547
		S11.812,18.537,11.812,18.537z"/>
	<path fill="#E7E7E7" d="M13.937,18.537c0,0,0.669,0.06,0.669-0.576c0-0.359,0-0.528,0-0.528h-0.451c0,0,0,0.061,0,0.547
		S13.937,18.537,13.937,18.537z"/>
</g>
</svg>
