<?xml version="1.0" encoding="utf-8"?>
<!-- Generator: Adobe Illustrator 17.0.0, SVG Export Plug-In . SVG Version: 6.00 Build 0)  -->
<!DOCTYPE svg PUBLIC "-//W3C//DTD SVG 1.1//EN" "http://www.w3.org/Graphics/SVG/1.1/DTD/svg11.dtd">
<svg version="1.1" id="图层_1" xmlns="http://www.w3.org/2000/svg" xmlns:xlink="http://www.w3.org/1999/xlink" x="0px" y="0px"
	 width="200px" height="200px" viewBox="0 0 200 200" enable-background="new 0 0 200 200" xml:space="preserve">
<path fill="#00D400" d="M122.429,79.346c1.464,0,2.913,0.107,4.35,0.267C122.87,61.412,103.412,47.89,81.201,47.89
	c-24.831,0-45.172,16.926-45.172,38.418c0,12.406,6.767,22.594,18.076,30.496l-4.518,13.589l15.791-7.919
	c5.65,1.118,10.184,2.269,15.823,2.269c1.418,0,2.823-0.07,4.217-0.18c-0.883-3.02-1.394-6.183-1.394-9.465
	C84.024,95.362,100.971,79.346,122.429,79.346z M98.14,67.098c3.401,0,5.654,2.238,5.654,5.637c0,3.385-2.253,5.654-5.654,5.654
	c-3.386,0-6.783-2.269-6.783-5.654C91.357,69.336,94.754,67.098,98.14,67.098z M66.526,78.389c-3.386,0-6.802-2.269-6.802-5.654
	c0-3.399,3.417-5.637,6.802-5.637c3.385,0,5.639,2.238,5.639,5.637C72.165,76.12,69.911,78.389,66.526,78.389z"/>
<path fill="#00D400" d="M163.657,114.554c0-18.06-18.072-32.782-38.37-32.782c-21.493,0-38.42,14.722-38.42,32.782
	c0,18.091,16.928,32.782,38.42,32.782c4.499,0,9.036-1.134,13.554-2.267l12.39,6.785l-3.397-11.289
	C156.901,133.763,163.657,124.742,163.657,114.554z M112.83,108.902c-2.249,0-4.518-2.238-4.518-4.52
	c0-2.251,2.269-4.518,4.518-4.518c3.417,0,5.655,2.267,5.655,4.518C118.485,106.665,116.247,108.902,112.83,108.902z
	 M137.677,108.902c-2.234,0-4.487-2.238-4.487-4.52c0-2.251,2.253-4.518,4.487-4.518c3.385,0,5.654,2.267,5.654,4.518
	C143.332,106.665,141.063,108.902,137.677,108.902z"/>
<circle fill="none" stroke="#00D400" stroke-miterlimit="10" cx="100" cy="100" r="75.5"/>
</svg>
