<?xml version="1.0" encoding="utf-8"?>
<!-- Generator: Adobe Illustrator 17.0.0, SVG Export Plug-In . SVG Version: 6.00 Build 0)  -->
<!DOCTYPE svg PUBLIC "-//W3C//DTD SVG 1.1//EN" "http://www.w3.org/Graphics/SVG/1.1/DTD/svg11.dtd">
<svg version="1.1" id="图层_1" xmlns="http://www.w3.org/2000/svg" xmlns:xlink="http://www.w3.org/1999/xlink" x="0px" y="0px"
	 width="200px" height="200px" viewBox="0 0 200 200" enable-background="new 0 0 200 200" xml:space="preserve">
<path fill="none" stroke="#676767" stroke-width="4" stroke-linejoin="round" stroke-miterlimit="10" d="M124.027,31.468
	c-0.03-0.011-0.513-0.29-0.776-0.29c-0.001,0-0.002,0-0.003,0C123.232,44.004,112.83,54.397,100,54.397S76.768,44.004,76.751,31.178
	c-0.001,0-0.002,0-0.003,0c-0.263,0-0.746,0.279-0.776,0.29c-29.513,11.258-40.477,40.1-40.477,73.567c0,0.272,0.001-0.272,0.004,0
	H56.37v43.824v3.293c0,9.326,7.21,16.922,16.535,16.922l27.094,0l27.094,0c9.326,0,16.535-7.597,16.535-16.922v-3.293v-43.824H164.5
	c0.003-0.272,0.004,0.272,0.004,0C164.505,71.568,153.54,42.725,124.027,31.468z"/>
</svg>
