<?xml version="1.0" encoding="utf-8"?>
<!-- Generator: Adobe Illustrator 17.0.0, SVG Export Plug-In . SVG Version: 6.00 Build 0)  -->
<!DOCTYPE svg PUBLIC "-//W3C//DTD SVG 1.1//EN" "http://www.w3.org/Graphics/SVG/1.1/DTD/svg11.dtd">
<svg version="1.1" id="图层_1" xmlns="http://www.w3.org/2000/svg" xmlns:xlink="http://www.w3.org/1999/xlink" x="0px" y="0px"
	 width="200px" height="200px" viewBox="0 0 200 200" enable-background="new 0 0 200 200" xml:space="preserve">
<circle fill="#DF001F" cx="98.316" cy="96.414" r="68.914"/>
<path fill="#FFFFFF" d="M38.901,106.996c7.149,46.694,56.755,52.062,56.755,52.062s-18.238-12.722-14.373-32.984
	c3.239-16.982,14.189-16.584,17.321-36.485c2.893-18.38-10.999-37.624-32.92-34.271C44.797,58.512,35.4,84.127,38.901,106.996z"/>
<circle fill="#FFFFFF" cx="102.804" cy="46.988" r="13.46"/>
<circle fill="#DF001F" cx="70.519" cy="82.858" r="19.334"/>
<circle fill="#FFFFFF" cx="114.539" cy="133.016" r="19.591"/>
<g>
	<path fill="#FFFFFF" d="M59.658,77.327c0,0,0-0.415,0-1.659c0-1.244,0.975-2.957,2.958-2.957c2.126,0,6.725,0,6.725,0l-0.016-2.395
		h2.821l0,2.395c0,0,4.171,0,6.273,0c1.858,0,2.958,1.585,2.958,2.957c0,1.232,0,1.659,0,1.659h-2.443v-1.658
		c0,0-0.023-0.966-1.001-0.966c-3.164,0-14.231,0-14.85,0c-0.742,0-0.984,0.704-0.984,0.966s0,1.659,0,1.659H59.658z"/>
	<path fill="#FFFFFF" d="M77.759,90.136v-12.81h-14.57v12.81h-3.53v1.9h21.72v-1.9H77.759z M75.315,90.136h-9.683v-2.457h9.683
		V90.136z M75.315,85.96h-9.683v-2.387h9.683V85.96z M75.315,81.854h-9.683v-2.536h9.683V81.854z"/>
</g>
<g>
	<g>
		<path fill="#DF001F" d="M106.593,130.199v1.856c-0.074,1.166,0.545,1.711,1.856,1.637h16.994l-0.006,2.402h-21.802l0.009-3.821
			v-4.477h18.851l0.003-1.176c0,0,0.024-1.99-2.145-1.99c-0.987,0-16.569,0-16.569,0s0.761-2.512,3.373-2.512
			c2.825,0,11.134,0,14.491,0c2.266,0,3.794,1.47,3.794,3.825s0,4.255,0,4.255H106.593z M111.233,143.9
			c-2.477,0.072-3.677-1.2-3.604-3.821v-3.132h2.839v2.477c-0.073,1.31,0.618,1.965,2.075,1.965h4.583
			c3.777,0,4.33-4.442,4.33-4.442v3.472c0,0,0.171,3.481-3.386,3.481H111.233z M114.112,139.712c-0.517-0.682-1-1.374-1.529-2.018
			l0.554-0.343c0,0,1.63-1.186,3.087,0.503c0.641,0.744,1.191,1.508,1.709,2.242l-0.472,0.308
			C117.46,140.404,115.433,141.455,114.112,139.712z"/>
	</g>
	<path fill="#DF001F" d="M107.848,143.903c0,0-4.213,0.377-4.213-3.629c0-2.185,0-3.327,0-3.327h2.843c0,0,0,0.383,0,3.448
		S107.848,143.903,107.848,143.903z"/>
	<path fill="#DF001F" d="M121.23,143.903c0,0,4.213,0.377,4.213-3.629c0-2.258,0-3.327,0-3.327H122.6c0,0,0,0.383,0,3.448
		S121.23,143.903,121.23,143.903z"/>
</g>
</svg>
