<?xml version="1.0" encoding="utf-8"?>
<!-- Generator: Adobe Illustrator 17.0.0, SVG Export Plug-In . SVG Version: 6.00 Build 0)  -->
<!DOCTYPE svg PUBLIC "-//W3C//DTD SVG 1.1//EN" "http://www.w3.org/Graphics/SVG/1.1/DTD/svg11.dtd">
<svg version="1.1" id="图层_1" xmlns="http://www.w3.org/2000/svg" xmlns:xlink="http://www.w3.org/1999/xlink" x="0px" y="0px"
	 width="200px" height="200px" viewBox="0 0 200 200" enable-background="new 0 0 200 200" xml:space="preserve">
<path fill="#DF001F" d="M124.027,28.041c-0.03-0.011-0.513-0.29-0.776-0.29c-0.001,0-0.002,0-0.003,0
	C123.232,40.577,112.83,50.97,100,50.97S76.768,40.577,76.751,27.752c-0.001,0-0.002,0-0.003,0c-0.263,0-0.746,0.279-0.776,0.29
	c-29.513,11.258-40.477,40.1-40.477,73.567c0,0.272,0.001-0.272,0.004,0H56.37v43.824v3.293c0,9.326,7.21,16.922,16.535,16.922
	l27.094,0l27.094,0c9.326,0,16.535-7.597,16.535-16.922v-3.293v-43.824H164.5c0.003-0.272,0.004,0.272,0.004,0
	C164.505,68.141,153.54,39.299,124.027,28.041z"/>
</svg>
