<?xml version="1.0" encoding="utf-8"?>
<!-- Generator: Adobe Illustrator 17.0.0, SVG Export Plug-In . SVG Version: 6.00 Build 0)  -->
<!DOCTYPE svg PUBLIC "-//W3C//DTD SVG 1.1//EN" "http://www.w3.org/Graphics/SVG/1.1/DTD/svg11.dtd">
<svg version="1.1" id="图层_1" xmlns="http://www.w3.org/2000/svg" xmlns:xlink="http://www.w3.org/1999/xlink" x="0px" y="0px"
	 width="200px" height="200px" viewBox="0 0 200 200" enable-background="new 0 0 200 200" xml:space="preserve">
<path fill="#DF001F" d="M100.264,143.97c-12.477-0.014-22.589-10.124-22.602-22.603c0-12.46,10.143-22.603,22.602-22.603
	c12.46,0,22.604,10.143,22.604,22.603C122.856,133.846,112.743,143.956,100.264,143.97z M100.264,113.828
	c-4.158,0.007-7.528,3.375-7.537,7.533c0.005,4.161,3.376,7.533,7.537,7.539c4.16-0.006,7.531-3.378,7.533-7.539
	C107.793,117.203,104.423,113.833,100.264,113.828z"/>
<path fill="#DF001F" d="M100.264,169.24c-35.198,0-63.831-21.476-63.831-47.873c0-26.398,28.633-47.871,63.831-47.871
	c35.194,0,63.832,21.474,63.832,47.871S135.464,169.24,100.264,169.24L100.264,169.24z M100.264,89.449
	c-25.95,0-47.871,14.612-47.871,31.914c0,17.306,21.921,31.918,47.871,31.918s47.873-14.612,47.873-31.918
	C148.138,104.061,126.216,89.449,100.264,89.449L100.264,89.449z M108.575,51.536c0,4.59-3.721,8.31-8.31,8.31
	c-4.59,0-8.31-3.721-8.31-8.31V39.071c0-4.59,3.721-8.31,8.31-8.31c4.59,0,8.31,3.721,8.31,8.31V51.536z M153.979,66.397
	c-2.293,3.974-7.373,5.337-11.347,3.044c-0.001-0.001-0.003-0.002-0.004-0.003c-3.973-2.293-5.336-7.372-3.043-11.346
	c0.001-0.002,0.002-0.003,0.003-0.005l6.233-10.796c2.295-3.974,7.376-5.335,11.35-3.042s5.337,7.373,3.044,11.347
	c-0.001,0.001-0.002,0.003-0.003,0.004L153.979,66.397z M46.203,66.397c2.293,3.974,7.373,5.337,11.347,3.044
	c0.001-0.001,0.003-0.002,0.004-0.003c3.973-2.293,5.336-7.372,3.043-11.346c-0.001-0.002-0.002-0.003-0.003-0.005l-6.233-10.796
	c-2.295-3.974-7.376-5.335-11.35-3.042s-5.337,7.373-3.044,11.347c0.001,0.001,0.002,0.003,0.003,0.004L46.203,66.397z"/>
</svg>
