<?xml version="1.0" encoding="utf-8"?>
<!-- Generator: Adobe Illustrator 17.0.0, SVG Export Plug-In . SVG Version: 6.00 Build 0)  -->
<!DOCTYPE svg PUBLIC "-//W3C//DTD SVG 1.1//EN" "http://www.w3.org/Graphics/SVG/1.1/DTD/svg11.dtd">
<svg version="1.1" id="图层_1" xmlns="http://www.w3.org/2000/svg" xmlns:xlink="http://www.w3.org/1999/xlink" x="0px" y="0px"
	 width="79.5px" height="30.295px" viewBox="0 0 79.5 30.295" enable-background="new 0 0 79.5 30.295" xml:space="preserve">
<linearGradient id="SVGID_1_" gradientUnits="userSpaceOnUse" x1="-3.178920e-07" y1="15.1835" x2="79.5" y2="15.1835">
	<stop  offset="0" style="stop-color:#F45100"/>
	<stop  offset="1" style="stop-color:#DF001F"/>
</linearGradient>
<path fill="url(#SVGID_1_)" d="M66.571,29.421c-1.615,0.961-4.383,0.871-4.383,0.871H4c-2.209,0-4-1.791-4-4V4.079
	c0-2.209,1.791-4,4-4h59.083c0,0,1.27-0.104,3.104,0.526c1.833,0.63,2.673,1.869,2.673,1.869l8.677,9.473
	c0,0,1.963,1.637,1.963,3.117c0,1.646-1.603,3.104-1.603,3.104l-8.217,8.872C69.68,27.039,68.588,28.22,66.571,29.421z"/>
<g>
	<path fill="#FFFFFF" d="M21.828,5.819l-0.011,7.334l-3.159,2.632L7.646,15.805v5.912h14.425l-1.097,2.367H4.121l0.01-13.156h3.505
		v2.509l10.646-0.011V8.186H3.897V5.819H21.828z"/>
	<path fill="#FFFFFF" d="M28.502,8.247l-1.433,3.708l-3.261,0.01l2.723-6.359h3.84l2.844,6.319l-3.067-0.01L28.502,8.247z
		 M24.356,15.937h8.463v2.56l-2.185,3.871l1.677,1.869h-3.789l-4.125-4.267h3.576l0.457,0.446l1.452-2.296l-5.526,0.021V15.937z
		 M28.542,11.782c0.298,0.007,0.602,0.09,0.909,0.249c0.309,0.159,0.546,0.388,0.712,0.686c0.165,0.297,0.25,0.616,0.254,0.955
		c0.003,0.339-0.076,0.65-0.239,0.935c-0.169,0.291-0.403,0.521-0.701,0.691c-0.298,0.169-0.609,0.254-0.935,0.254
		c-0.339,0.007-0.655-0.075-0.949-0.244c-0.295-0.169-0.527-0.401-0.696-0.696c-0.169-0.294-0.251-0.61-0.244-0.949
		c0-0.325,0.087-0.639,0.26-0.94s0.409-0.533,0.711-0.696C27.924,11.864,28.23,11.782,28.542,11.782z M43.282,5.606l-0.985,2.408
		h-2.397l-0.314,1.879l3.494-0.01l-0.01,8.554l-2.732,1.066v-7.294h-4.104v6.705L33.5,20.061V9.883h2.813l0.336-1.869h-3.221V5.606
		H43.282z M39.707,13.184v5.363l3.2,5.771h-3.129l-1.494-2.845l-1.514,2.845h-3.342l3.342-5.709l0.011-5.425H39.707z"/>
	<path fill="#FFFFFF" d="M46.158,20.448V7.891h-0.803V5.667h18.601l-1.168,2.225h-8.635v12.333l1.676-0.051l-1.168,2.225
		l-0.508,0.01v1.017l-3.058,1.341V22.51l-5.74,0.193v-2.225L46.158,20.448z M49.216,10.513h1.88V7.891h-1.88V10.513z M51.096,11.092
		l-0.509,1.575h-1.371v2.743h1.88V11.092z M51.096,20.305v-4.317l-0.478,1.585h-1.402v2.783L51.096,20.305z M60.522,18.101
		l3.292,6.156h-3.292l-1.503-2.916l-1.342,2.916h-3.291l2.905-6.156l-2.418-4.612h3.17l0.762,1.422l1.514-3.2h-5.648V9.487h8.604
		v2.601L60.522,18.101z"/>
</g>
<circle fill="#FFFFFF" cx="70.917" cy="14.952" r="3.083"/>
</svg>
