<?xml version="1.0" encoding="utf-8"?>
<!-- Generator: Adobe Illustrator 17.0.0, SVG Export Plug-In . SVG Version: 6.00 Build 0)  -->
<!DOCTYPE svg PUBLIC "-//W3C//DTD SVG 1.1//EN" "http://www.w3.org/Graphics/SVG/1.1/DTD/svg11.dtd">
<svg version="1.1" id="图层_1" xmlns="http://www.w3.org/2000/svg" xmlns:xlink="http://www.w3.org/1999/xlink" x="0px" y="0px"
	 width="200px" height="200px" viewBox="0 0 200 200" enable-background="new 0 0 200 200" xml:space="preserve">
<circle fill="#FFFFFF" cx="100" cy="100" r="99.88"/>
<path fill="#E97B90" d="M13.996,116.525c10.233,66.838,81.24,74.522,81.24,74.522s-26.105-18.21-20.574-47.214
	c4.636-24.309,20.31-23.739,24.794-52.226c4.141-26.31-15.744-53.855-47.122-49.056C22.437,47.123,8.984,83.79,13.996,116.525z"/>
<circle fill="#E97B90" cx="101.408" cy="26.343" r="19.266"/>
<circle fill="#FFFFFF" cx="59.254" cy="81.973" r="27.675"/>
<circle fill="#939393" cx="116.104" cy="152.537" r="28.042"/>
<g>
	<path fill="#E97B90" d="M43.709,74.055c0,0,0-0.594,0-2.374c0-1.78,1.396-4.233,4.235-4.233c3.044,0,9.627,0,9.627,0l-0.022-3.428
		h4.038l-0.001,3.428c0,0,5.97,0,8.979,0c2.659,0,4.235,2.268,4.235,4.233c0,1.763,0,2.374,0,2.374h-3.496v-2.374
		c0,0-0.033-1.383-1.433-1.383c-4.53,0-20.37,0-21.257,0c-1.062,0-1.408,1.008-1.408,1.383s0,2.374,0,2.374H43.709z"/>
	<path fill="#E97B90" d="M69.618,92.391V74.055H48.762v18.336h-5.053v2.72H74.8v-2.72H69.618z M66.12,92.391H52.26v-3.517h13.86
		V92.391z M66.12,86.413H52.26v-3.417h13.86V86.413z M66.12,80.535H52.26v-3.63h13.86V80.535z"/>
</g>
<g>
	<g>
		<path fill="#FFFFFF" d="M104.73,148.506v2.657c-0.106,1.668,0.78,2.449,2.657,2.344h24.325l-0.009,3.439h-31.207l0.013-5.47
			v-6.408h26.984l0.004-1.684c0,0,0.035-2.848-3.07-2.848c-1.413,0-23.717,0-23.717,0s1.089-3.595,4.828-3.595
			c4.044,0,15.937,0,20.743,0c3.244,0,5.431,2.104,5.431,5.475c0,3.371,0,6.09,0,6.09H104.73z M111.372,168.116
			c-3.545,0.103-5.264-1.718-5.159-5.47v-4.483h4.064v3.545c-0.104,1.876,0.884,2.813,2.97,2.813h6.561
			c5.406,0,6.198-6.358,6.198-6.358v4.97c0,0,0.245,4.982-4.847,4.982H111.372z M115.492,162.122
			c-0.74-0.977-1.432-1.967-2.189-2.889l0.792-0.49c0,0,2.333-1.697,4.418,0.72c0.918,1.064,1.705,2.158,2.447,3.21l-0.676,0.441
			C120.285,163.113,117.383,164.616,115.492,162.122z"/>
	</g>
	<path fill="#FFFFFF" d="M106.526,168.12c0,0-6.03,0.54-6.03-5.195c0-3.128,0-4.762,0-4.762h4.069c0,0,0,0.549,0,4.936
		C104.565,167.486,106.526,168.12,106.526,168.12z"/>
	<path fill="#FFFFFF" d="M125.682,168.12c0,0,6.03,0.54,6.03-5.195c0-3.232,0-4.762,0-4.762h-4.069c0,0,0,0.549,0,4.936
		C127.643,167.486,125.682,168.12,125.682,168.12z"/>
</g>
</svg>
