<?xml version="1.0" encoding="utf-8"?>
<!-- Generator: Adobe Illustrator 17.0.0, SVG Export Plug-In . SVG Version: 6.00 Build 0)  -->
<!DOCTYPE svg PUBLIC "-//W3C//DTD SVG 1.1//EN" "http://www.w3.org/Graphics/SVG/1.1/DTD/svg11.dtd">
<svg version="1.1" id="图层_1" xmlns="http://www.w3.org/2000/svg" xmlns:xlink="http://www.w3.org/1999/xlink" x="0px" y="0px"
	 width="200px" height="100px" viewBox="0 0 200 100" enable-background="new 0 0 200 100" xml:space="preserve">
<g>
	<path fill="#E6646D" d="M70.634,23.237h-4.644l-0.006-4.013l-3.568,0.006l0.002,4.007h-3.215c-2.381-0.117-3.453,0.893-3.215,3.036
		v29.326c-0.119,1.786,0.714,2.679,2.5,2.679h12.145c1.905,0,2.858-0.954,2.858-2.858v-28.79
		C73.611,24.249,72.659,23.12,70.634,23.237z M69.92,54.17c-0.119,0.954-0.595,1.369-1.429,1.25h-7.68
		c-0.953,0-1.369-0.474-1.25-1.429V43.053H69.92V54.17z M69.92,39.838H59.561V27.702c-0.119-0.832,0.536-1.25,1.965-1.25h7.144
		c0.833,0,1.25,0.476,1.25,1.429V39.838z"/>
	<path fill="#E6646D" d="M132.073,29.257h9.823v3.036h-17.86v2.44h11.966c2.143-0.117,3.155,0.893,3.036,3.036v10.895
		c0,2.026-0.953,3.036-2.858,3.036h-27.683c-2.143,0.119-3.155-0.953-3.036-3.215V37.77c-0.119-2.024,0.893-3.036,3.036-3.036
		h12.323v-2.44H103.14v-3.036h8.751v-3.886h-6.787c-1.191,0-1.786-0.536-1.786-1.607c0-0.953,0.595-1.488,1.786-1.607h6.787V19.12
		h3.393v3.036h13.395v-2.858h3.393v2.858h7.144c0.953,0.119,1.488,0.655,1.607,1.607c-0.119,1.072-0.655,1.607-1.607,1.607h-7.144
		V29.257z M108.676,41.699h12.145v-4.108h-11.252c-0.595,0-0.893,0.357-0.893,1.072V41.699z M108.676,47.771
		c0,0.597,0.357,0.893,1.072,0.893h11.073v-3.929h-12.145V47.771z M128.68,25.371h-13.395v3.886h13.395V25.371z M124.036,41.699
		h11.788v-2.858c-0.119-0.714-0.595-1.131-1.429-1.25h-10.359V41.699z M124.036,48.664h10.537c0.714,0.119,1.131-0.296,1.25-1.25
		v-2.679h-11.788V48.664z"/>
	<path fill="#E6646D" d="M49.094,50.358c0,0-1.217,3.95-2.401,3.918c-1.183-0.032-2.551-1.222-5.171-6.223
		c2.262-3.215,4.048-6.668,5.358-10.359c0.238-0.952-0.06-1.725-0.893-2.322c-1.072-0.357-1.786-0.117-2.143,0.714
		c-1.072,2.977-2.322,5.598-3.751,7.858c-1.191-3.81-2.024-7.144-2.5-10.002h13.038v-3.572H37.064c0,0-0.424-2.339-0.543-6.425
		c-0.095-3.244,0.001-4.537,0.001-4.537H32.95c0,0-0.104,1.512,0.013,4.762c0.154,4.285,0.489,6.2,0.489,6.2H22.948v-7.743
		l-3.572,0.714v7.029h-6.604v3.572h6.604v18.08c0,0-0.043,2.66-3.139,2.66c-1.8,0-2.989,0-2.989,0c-0.986,0-1.786,0.8-1.786,1.786
		c0,0.986,0.8,1.786,1.786,1.786c0,0,1.789,0,3.747,0c5.717,0,5.952-4.964,5.952-4.964V33.944h11.073
		c0.476,4.169,1.607,8.634,3.393,13.395c-2.739,2.858-6.489,5.298-11.252,7.323c-1.072,0.597-1.369,1.31-0.893,2.143
		c0.595,0.952,1.488,1.25,2.679,0.893c4.048-1.548,7.739-3.868,11.073-6.965c3.096,5.832,4.796,7.498,8.044,7.53
		c3.247,0.033,5.131-6.9,5.131-6.9L49.094,50.358z"/>
	<path fill="#E6646D" d="M96.71,51.329V27.157c0.119-2.739-1.25-4.046-4.108-3.929H81.708c0.357-1.667,0.66-4.032,0.66-4.032
		l-3.518,0.006c0,0-0.135,2.72-1.115,5.658c-0.979,2.938-2.948,6.515-2.948,6.515l2.991,1.855c0,0,2.203-3.868,3.036-6.608h10.537
		c1.429,0,2.143,0.536,2.143,1.607v21.655c0,0,0.238,4.8-4.168,4.8c-4.406,0-6.067,0-6.067,0c-0.986,0-1.786,0.8-1.786,1.786
		c0,0.986,0.8,1.786,1.786,1.786c0,0,1.615,0,6.02,0C96.717,58.256,96.71,51.329,96.71,51.329z"/>
	<path fill="#E6646D" d="M29.798,38.866c0.931-0.325,1.95,0.167,2.274,1.099l0,0c0.325,0.931-0.167,1.95-1.099,2.274l-17.137,5.98
		c-0.931,0.325-1.95-0.167-2.274-1.099l0,0c-0.325-0.931,0.167-1.95,1.099-2.274L29.798,38.866z"/>
	<path fill="#E6646D" d="M80.709,35.529c-0.325-0.931,0.167-1.95,1.099-2.274l0,0c0.931-0.325,1.95,0.167,2.274,1.099l4.676,13.62
		c0.325,0.931-0.167,1.95-1.099,2.274l0,0c-0.931,0.325-1.95-0.167-2.274-1.099L80.709,35.529z"/>
	<path fill="#E6646D" d="M114.851,52.894c0.952-0.258,1.933,0.304,2.191,1.256l0,0c0.258,0.952-0.304,1.933-1.256,2.191
		l-11.981,3.067c-0.952,0.258-1.933-0.304-2.191-1.256l0,0c-0.258-0.952,0.304-1.933,1.256-2.191L114.851,52.894z"/>
	<path fill="#E6646D" d="M129.757,52.894c-0.952-0.258-1.933,0.304-2.191,1.256l0,0c-0.258,0.952,0.304,1.933,1.256,2.191
		l11.981,3.067c0.952,0.258,1.933-0.304,2.191-1.256l0,0c0.258-0.952-0.304-1.933-1.256-2.191L129.757,52.894z"/>
	<path fill="#E6646D" d="M42.397,19.656c-0.76-0.629-1.885-0.524-2.515,0.236l0,0c-0.629,0.76-0.524,1.885,0.236,2.515l6.634,5.446
		c0.76,0.629,1.885,0.524,2.515-0.236l0,0c0.629-0.76,0.524-1.885-0.236-2.515L42.397,19.656z"/>
	<path fill="#E6646D" d="M28.679,18.08l2.163,2.581c0,0-2.966,3.07-6.712,3.07c-2.743,0-11.347,0.022-11.347,0.022
		c-0.986-0.001-1.785-0.802-1.784-1.788l0,0c0.001-0.986,0.802-1.785,1.788-1.784c0,0,8.435-0.023,11.372-0.023
		C26.598,20.16,28.679,18.08,28.679,18.08z"/>
	<ellipse fill="#E6646D" cx="29.773" cy="19.373" rx="1.693" ry="1.701"/>
	<ellipse fill="#E6646D" cx="34.731" cy="19.373" rx="1.789" ry="1.797"/>
	<circle fill="#E6646D" cx="50.668" cy="50.827" r="1.64"/>
	<circle fill="#E6646D" cx="50.654" cy="32.158" r="1.772"/>
	<circle fill="#E6646D" cx="12.772" cy="32.158" r="1.772"/>
	<circle fill="#E6646D" cx="64.204" cy="19.245" r="1.782"/>
	<circle fill="#E6646D" cx="113.576" cy="19.185" r="1.702"/>
	<circle fill="#E6646D" cx="141.896" cy="30.782" r="1.517"/>
	<circle fill="#E6646D" cx="148.838" cy="56.643" r="1.762"/>
	<circle fill="#E6646D" cx="157.934" cy="56.643" r="1.762"/>
	<circle fill="#E6646D" cx="168.325" cy="26.88" r="1.789"/>
	<circle fill="#E6646D" cx="186.725" cy="21.616" r="1.789"/>
	<circle fill="#E6646D" cx="103.14" cy="30.782" r="1.517"/>
	<circle fill="#E6646D" cx="130.38" cy="19.185" r="1.702"/>
	<circle fill="#E6646D" cx="80.609" cy="19.173" r="1.758"/>
	<circle fill="#E6646D" cx="76.254" cy="32.344" r="1.758"/>
	<g>
		<path fill="#E6646D" d="M182.26,32.158h-12.145v-5.269h-3.572v5.269h-9.287c-1.191,0.119-1.786,0.776-1.786,1.965
			c0.119,1.072,0.774,1.607,1.965,1.607h8.93c0,12.662-9.546,19.55-9.546,19.55l2.202,2.748c0,0,10.916-6.731,10.916-22.298h10.716
			c1.667,0.119,2.5,0.833,2.5,2.143c0,2.283,0.034,12.498,0.034,12.498s0.409,4.494-4.529,4.494c-1.316,0-6.203,0-6.203,0
			c-0.981,0-1.777,0.796-1.777,1.777c0,0.981,0.796,1.777,1.777,1.777c0,0,0.577,0,7.209,0s7.048-5.606,7.048-5.606
			s0.014-13.58,0.014-16.548C186.725,33.406,185.356,32.041,182.26,32.158z"/>
		<path fill="#E6646D" d="M186.814,19.835h-32.416c-3.215-0.117-4.703,1.191-4.465,3.929v15.003c0,9.246-2.858,17.661-2.858,17.661
			l3.45,0.719c0,0,3.099-9.449,2.98-18.737V25.193c-0.119-1.189,0.595-1.786,2.143-1.786h31.166V19.835z"/>
	</g>
</g>
<g>
	<path fill="#E6646D" d="M14.853,70.341v2.461h1.203c0.292,0.037,0.456,0.219,0.492,0.547c-0.037,0.328-0.201,0.492-0.492,0.492
		h-1.258v2.406c0.109-0.036,0.219-0.091,0.328-0.164c0.182-0.072,0.346-0.146,0.492-0.219c0.328-0.146,0.565-0.072,0.711,0.219
		c0.146,0.328,0.055,0.584-0.273,0.766c-0.328,0.183-0.748,0.383-1.258,0.602v3.883c0.073,1.166-0.711,1.531-2.352,1.094
		c-0.328-0.109-0.456-0.328-0.383-0.656c0.146-0.292,0.401-0.401,0.766-0.328c0.692,0.146,1.002,0.072,0.93-0.219v-3.336
		c-0.109,0.037-0.31,0.109-0.602,0.219c-0.183,0.037-0.383,0.092-0.602,0.164c-0.365,0.073-0.62-0.055-0.766-0.383
		c-0.037-0.328,0.127-0.547,0.492-0.656c0.802-0.291,1.294-0.474,1.477-0.547v-2.844h-1.203c-0.328,0-0.492-0.164-0.492-0.492
		s0.164-0.51,0.492-0.547h1.203v-2.461c0-0.328,0.182-0.51,0.547-0.547C14.634,69.831,14.816,70.013,14.853,70.341z M21.251,75.81
		v0.875h2.625c0.328,0.037,0.492,0.219,0.492,0.547s-0.164,0.492-0.492,0.492h-2.625v1.094h3.336c0.547,0.365,0.547,0.711,0,1.039
		h-3.336v2.68c-0.037,0.328-0.237,0.51-0.602,0.547c-0.365-0.037-0.547-0.219-0.547-0.547v-2.68h-3.5
		c-0.365,0-0.565-0.164-0.602-0.492c0.036-0.328,0.237-0.51,0.602-0.547h3.5v-1.094h-2.844c-0.328,0-0.492-0.164-0.492-0.492
		c0.036-0.328,0.219-0.51,0.547-0.547h2.789V75.81c0-0.328,0.182-0.51,0.547-0.547C21.014,75.3,21.215,75.481,21.251,75.81z
		 M17.97,71.38c-0.438,0-0.656-0.182-0.656-0.547c0.036-0.328,0.273-0.51,0.711-0.547h5.414c0.766,0,0.966,0.42,0.602,1.258
		c-0.401,0.729-1.167,1.514-2.297,2.352c1.021,0.475,2.06,0.784,3.117,0.93c0.364,0.073,0.51,0.292,0.438,0.656
		c-0.073,0.365-0.292,0.529-0.656,0.492c-1.167-0.182-2.498-0.656-3.992-1.422c-1.24,0.729-2.479,1.167-3.719,1.312
		c-0.401,0.073-0.638-0.055-0.711-0.383c-0.037-0.364,0.127-0.583,0.492-0.656c1.021-0.146,2.005-0.455,2.953-0.93
		c-0.328-0.255-0.839-0.747-1.531-1.477c-0.292-0.364-0.31-0.656-0.055-0.875c0.292-0.182,0.62-0.109,0.984,0.219
		c0.656,0.766,1.203,1.295,1.641,1.586c0.875-0.583,1.586-1.239,2.133-1.969H17.97z"/>
	<path fill="#E6646D" d="M34.965,70.286h8.477c0.766,0,1.148,0.438,1.148,1.312v9.625c0.073,0.911-0.419,1.33-1.477,1.258h-8.477
		c-0.839-0.109-1.276-0.511-1.312-1.203v-9.625C33.288,70.742,33.834,70.286,34.965,70.286z M35.02,71.38
		c-0.401,0-0.583,0.183-0.547,0.547v3.938h8.969v-3.992c0.036-0.364-0.146-0.528-0.547-0.492H35.02z M34.473,76.958v3.938
		c-0.037,0.328,0.237,0.492,0.82,0.492h7.711c0.292,0,0.438-0.127,0.438-0.383v-4.047H34.473z"/>
	<path fill="#E6646D" d="M53.491,70.45h11.867c0.328,0.037,0.492,0.219,0.492,0.547c0,0.365-0.164,0.547-0.492,0.547h-5.359
		l-0.875,1.859h4.867c0.911,0,1.367,0.456,1.367,1.367v6.508c0.182,1.239-0.748,1.658-2.789,1.258
		c-0.328-0.073-0.474-0.292-0.438-0.656c0.109-0.365,0.328-0.511,0.656-0.438c0.984,0.291,1.458,0.236,1.422-0.164v-6.234
		c0-0.364-0.183-0.564-0.547-0.602h-1.859v7.438c-0.037,0.328-0.237,0.492-0.602,0.492c-0.365,0-0.547-0.164-0.547-0.492v-7.438
		h-2.461v7.383c-0.037,0.364-0.237,0.564-0.602,0.602c-0.365-0.037-0.547-0.237-0.547-0.602v-7.383h-1.914
		c-0.365,0-0.529,0.164-0.492,0.492v7c-0.037,0.328-0.237,0.51-0.602,0.547c-0.365-0.037-0.547-0.219-0.547-0.547v-7.383
		c-0.037-0.766,0.383-1.148,1.258-1.148h3.062l0.984-1.859h-5.305c-0.365,0-0.547-0.182-0.547-0.547
		C52.944,70.669,53.126,70.487,53.491,70.45z"/>
	<path fill="#E6646D" d="M79.345,70.177c0,0.547-0.055,1.24-0.164,2.078c0,0.219,0,0.365,0,0.438h5.195
		c0.948-0.036,1.403,0.42,1.367,1.367c-0.037,1.058-0.073,2.133-0.109,3.227c-0.073,1.131-0.164,2.151-0.273,3.062
		c-0.073,2.15-1.495,2.88-4.266,2.188c-0.328-0.109-0.474-0.347-0.438-0.711c0.109-0.328,0.328-0.475,0.656-0.438
		c1.932,0.51,2.917,0.018,2.953-1.477c0.073-0.692,0.146-1.531,0.219-2.516c0.036-1.021,0.073-2.041,0.109-3.062
		c0-0.364-0.183-0.547-0.547-0.547h-4.977c-0.802,4.631-2.315,7.656-4.539,9.078c-0.365,0.182-0.656,0.164-0.875-0.055
		c-0.183-0.256-0.109-0.511,0.219-0.766c2.042-1.422,3.391-4.156,4.047-8.203h-3.391c-0.365,0-0.547-0.182-0.547-0.547
		c0-0.364,0.182-0.564,0.547-0.602h3.555c0-0.182,0-0.438,0-0.766c0.036-0.619,0.091-1.221,0.164-1.805
		c0.036-0.328,0.237-0.492,0.602-0.492C79.181,69.667,79.345,69.849,79.345,70.177z M76.337,72.31
		c-0.183-0.219-0.474-0.564-0.875-1.039c-0.073-0.072-0.109-0.146-0.109-0.219c-0.255-0.219-0.273-0.455-0.055-0.711
		c0.219-0.182,0.474-0.164,0.766,0.055c0.438,0.401,0.802,0.839,1.094,1.312c0.182,0.328,0.164,0.584-0.055,0.766
		C76.811,72.656,76.556,72.602,76.337,72.31z M80.603,75.427c0.766,0.729,1.513,1.568,2.242,2.516c0.255,0.365,0.255,0.675,0,0.93
		c-0.328,0.183-0.62,0.109-0.875-0.219c-0.839-1.057-1.531-1.877-2.078-2.461c-0.255-0.255-0.292-0.492-0.109-0.711
		C80.037,75.263,80.311,75.245,80.603,75.427z"/>
	<path fill="#E6646D" d="M117.751,70.177v1.258h1.531c0.219,0.037,0.346,0.201,0.383,0.492c-0.037,0.328-0.164,0.492-0.383,0.492
		h-1.531v1.641h1.75c0.255,0.037,0.4,0.219,0.438,0.547c-0.037,0.328-0.183,0.492-0.438,0.492h-1.586v1.859h1.641
		c0.438,0.328,0.438,0.656,0,0.984h-1.641v2.789c0.4,0.256,0.911,0.42,1.531,0.492c0.583,0.073,1.477,0.109,2.68,0.109h4.32
		c0.255,0,0.4,0.146,0.438,0.438c0,0.328-0.128,0.51-0.383,0.547h-4.375c-2.042,0-3.482-0.183-4.32-0.547
		c-0.875-0.292-1.678-1.002-2.406-2.133c-0.292,0.984-0.584,1.75-0.875,2.297c-0.183,0.291-0.438,0.383-0.766,0.273
		c-0.328-0.183-0.42-0.42-0.273-0.711c0.802-1.604,1.221-3.299,1.258-5.086c0.036-0.364,0.236-0.547,0.602-0.547
		c0.364,0.037,0.547,0.237,0.547,0.602c-0.037,0.256-0.055,0.547-0.055,0.875c-0.037,0.328-0.073,0.62-0.109,0.875
		c0.438,0.803,0.838,1.367,1.203,1.695v-4.812h-2.789c-0.328,0-0.492-0.164-0.492-0.492s0.164-0.51,0.492-0.547h2.625v-1.641h-1.969
		c-0.256,0-0.401-0.164-0.438-0.492c0.036-0.291,0.182-0.455,0.438-0.492h1.969v-1.258c0-0.291,0.164-0.455,0.492-0.492
		C117.55,69.722,117.714,69.886,117.751,70.177z M122.071,71.653c-0.438,0.62-1.039,1.276-1.805,1.969
		c-0.328,0.256-0.62,0.256-0.875,0c-0.256-0.328-0.219-0.619,0.109-0.875c0.838-0.692,1.549-1.549,2.133-2.57
		c0.182-0.291,0.438-0.383,0.766-0.273c0.328,0.146,0.438,0.383,0.328,0.711h2.078c0.51,0.073,0.674,0.383,0.492,0.93
		c-0.146,0.365-0.456,0.912-0.93,1.641c0.036-0.036,0.018,0-0.055,0.109h0.82c0.51,0,0.766,0.292,0.766,0.875v4.812
		c0.036,0.875-0.347,1.276-1.148,1.203h-4.156c-0.365,0-0.565-0.182-0.602-0.547c0.036-0.328,0.255-0.51,0.656-0.547h3.719
		c0.255,0,0.419-0.146,0.492-0.438v-1.531h-3.938c-0.365,0-0.565-0.182-0.602-0.547c0.036-0.328,0.236-0.51,0.602-0.547h3.938
		v-1.258c0-0.255-0.128-0.383-0.383-0.383h-3.555c-0.365,0-0.565-0.164-0.602-0.492c0-0.364,0.182-0.564,0.547-0.602h2.023
		c0.364-0.364,0.711-0.838,1.039-1.422c0.036-0.146-0.019-0.219-0.164-0.219H122.071z"/>
	<path fill="#E6646D" d="M141.034,70.341v1.203h5.578c0.328,0.037,0.492,0.219,0.492,0.547c0,0.365-0.164,0.547-0.492,0.547h-5.578
		v2.023h5.031c0.291,0.037,0.455,0.219,0.492,0.547c-0.037,0.365-0.201,0.547-0.492,0.547h-10.938c-0.365,0-0.565-0.182-0.602-0.547
		c0.036-0.328,0.236-0.51,0.602-0.547h4.703v-2.023h-5.469c-0.365,0-0.547-0.182-0.547-0.547c0-0.328,0.182-0.51,0.547-0.547h5.469
		v-1.148c0-0.328,0.182-0.51,0.547-0.547C140.778,69.849,140.997,70.013,141.034,70.341z M136.276,77.067h8.477
		c0.729-0.036,1.075,0.328,1.039,1.094v3.172c0.036,0.802-0.292,1.185-0.984,1.148h-8.258c-0.948,0.036-1.367-0.311-1.258-1.039
		v-3.336C135.255,77.414,135.583,77.067,136.276,77.067z M136.823,78.161c-0.292,0-0.42,0.128-0.383,0.383v2.516
		c-0.037,0.219,0.109,0.328,0.438,0.328h7.438c0.219,0,0.328-0.091,0.328-0.273v-2.516c-0.037-0.291-0.164-0.438-0.383-0.438
		H136.823z"/>
	<path fill="#E6646D" d="M160.818,81.388h6.016c0.364,0,0.583,0.164,0.656,0.492c-0.037,0.364-0.237,0.564-0.602,0.602h-6.234
		c-1.495,0-2.717-0.511-3.664-1.531c-0.292,0.4-0.875,0.875-1.75,1.422c-0.328,0.146-0.584,0.055-0.766-0.273
		c-0.146-0.365-0.073-0.62,0.219-0.766c1.057-0.474,1.567-1.002,1.531-1.586v-2.844c0-0.291-0.183-0.438-0.547-0.438h-0.82
		c-0.328,0-0.492-0.182-0.492-0.547c0-0.364,0.164-0.564,0.492-0.602h1.531c0.656,0,0.984,0.347,0.984,1.039v2.734
		C157.555,80.586,158.703,81.351,160.818,81.388z M155.732,70.669c0.619,0.656,1.203,1.404,1.75,2.242
		c0.182,0.401,0.164,0.693-0.055,0.875c-0.292,0.146-0.547,0.037-0.766-0.328c-0.547-0.802-1.094-1.494-1.641-2.078
		c-0.256-0.219-0.273-0.455-0.055-0.711C155.186,70.45,155.44,70.45,155.732,70.669z M159.342,70.614h1.914
		c0.656,0,0.984,0.237,0.984,0.711v2.242c0,0.547-0.256,0.803-0.766,0.766h-2.078v0.656c0,1.276-0.292,2.644-0.875,4.102
		c-0.219,0.401-0.511,0.547-0.875,0.438c-0.256-0.219-0.292-0.547-0.109-0.984c0.51-1.057,0.766-2.333,0.766-3.828V71.38
		C158.303,70.906,158.648,70.651,159.342,70.614z M160.162,75.427h1.367c0.51,0,0.766,0.292,0.766,0.875v3.828
		c0.036,0.511-0.183,0.729-0.656,0.656h-1.531c-0.547,0.073-0.784-0.182-0.711-0.766v-3.828
		C159.359,75.683,159.615,75.427,160.162,75.427z M159.779,71.599c-0.292,0.037-0.42,0.128-0.383,0.273v1.477h1.477
		c0.146,0,0.236-0.109,0.273-0.328v-1.148c0-0.182-0.109-0.273-0.328-0.273H159.779z M161.037,76.466H160.6
		c-0.183,0.037-0.256,0.164-0.219,0.383v2.57c-0.037,0.256,0.018,0.365,0.164,0.328h0.547c0.146,0.037,0.219-0.072,0.219-0.328
		v-2.57C161.311,76.594,161.219,76.466,161.037,76.466z M165.74,72.911c0.072-0.328,0.273-0.474,0.602-0.438
		c0.364,0.109,0.51,0.328,0.438,0.656c-0.256,0.766-0.438,1.35-0.547,1.75h0.766c0.255,0.037,0.4,0.219,0.438,0.547
		c-0.037,0.328-0.183,0.492-0.438,0.492h-1.641v1.531h1.531c0.255,0.037,0.4,0.219,0.438,0.547
		c-0.037,0.328-0.183,0.492-0.438,0.492h-1.531v2.023c-0.037,0.328-0.219,0.492-0.547,0.492c-0.365,0-0.547-0.164-0.547-0.492
		v-2.023h-1.148c-0.328,0-0.492-0.164-0.492-0.492s0.164-0.51,0.492-0.547h1.148v-1.531h-1.422c-0.328,0-0.492-0.164-0.492-0.492
		s0.164-0.51,0.492-0.547h0.82c-0.073-0.072-0.128-0.146-0.164-0.219c-0.183-0.474-0.347-0.893-0.492-1.258
		c-0.183-0.328-0.128-0.583,0.164-0.766c0.291-0.109,0.547,0,0.766,0.328c0.219,0.475,0.4,0.93,0.547,1.367
		c0.036,0.183,0.036,0.365,0,0.547h0.602C165.193,74.552,165.412,73.896,165.74,72.911z M166.725,71.325
		c0.255,0.037,0.4,0.219,0.438,0.547c-0.037,0.328-0.183,0.492-0.438,0.492h-3.773c-0.292,0-0.456-0.164-0.492-0.492
		c0.036-0.328,0.2-0.51,0.492-0.547h1.258c-0.183-0.328-0.292-0.547-0.328-0.656c-0.146-0.328-0.055-0.583,0.273-0.766
		c0.328-0.109,0.583,0,0.766,0.328c0,0.146,0.072,0.328,0.219,0.547c0.109,0.256,0.182,0.438,0.219,0.547H166.725z"/>
	<path fill="#E6646D" d="M176.61,70.833v9.898c-0.037,0.365,0.109,0.529,0.438,0.492h8.914c0.255,0.037,0.383-0.091,0.383-0.383
		V70.833c0-0.328,0.182-0.51,0.547-0.547c0.364,0.037,0.564,0.219,0.602,0.547v10.062c0.072,0.984-0.347,1.439-1.258,1.367h-9.352
		c-1.021,0.072-1.477-0.383-1.367-1.367V70.833c0-0.328,0.182-0.492,0.547-0.492C176.392,70.341,176.573,70.505,176.61,70.833z
		 M184.923,71.161c-0.948,2.042-1.732,3.555-2.352,4.539c0.947,0.984,1.877,2.097,2.789,3.336c0.072,0.109,0.146,0.183,0.219,0.219
		c0.182,0.328,0.146,0.62-0.109,0.875c-0.292,0.219-0.547,0.183-0.766-0.109c-1.021-1.239-1.969-2.369-2.844-3.391
		c-1.386,1.568-2.625,2.717-3.719,3.445c-0.292,0.219-0.565,0.183-0.82-0.109c-0.183-0.328-0.128-0.619,0.164-0.875
		c1.567-1.203,2.752-2.314,3.555-3.336c-0.912-0.838-2.133-1.95-3.664-3.336c-0.256-0.219-0.311-0.474-0.164-0.766
		c0.255-0.255,0.528-0.31,0.82-0.164c1.239,0.984,2.369,1.969,3.391,2.953c0.109,0.109,0.219,0.201,0.328,0.273
		c0.656-0.947,1.349-2.26,2.078-3.938c0.182-0.4,0.438-0.564,0.766-0.492C184.923,70.469,185.032,70.761,184.923,71.161z"/>
</g>
</svg>
